<?xml version="1.0" standalone="no"?>
<!DOCTYPE svg PUBLIC "-//W3C//DTD SVG 20010904//EN"
 "http://www.w3.org/TR/2001/REC-SVG-20010904/DTD/svg10.dtd">
<svg version="1.0" xmlns="http://www.w3.org/2000/svg"
 width="1600.000000pt" height="1600.000000pt" viewBox="0 0 1600.000000 1600.000000"
 preserveAspectRatio="xMidYMid meet">
<metadata>
Created by potrace 1.11, written by Peter Selinger 2001-2013
</metadata>
<g transform="translate(0.000000,1600.000000) scale(0.100000,-0.100000)"
fill="#000000" stroke="none">
<path d="M609 13565 c-1 -5 -2 -2459 -3 -5452 -1 -5437 -1 -5443 19 -5444 68
-3 2382 -4 2393 -1 9 3 12 732 12 3601 l1 3596 371 220 c204 121 386 230 404
242 19 12 53 33 76 46 24 13 88 51 143 84 574 343 1106 661 1132 675 28 15 60
18 223 18 l190 0 548 -548 548 -548 0 -3691 -1 -3691 25 -4 c21 -2 2349 -2
2388 1 9 1 12 728 12 3599 l0 3597 61 35 c33 19 79 45 102 58 23 13 49 29 57
36 8 7 49 32 90 55 41 23 194 114 340 202 146 88 272 163 280 166 8 4 26 14
40 24 14 9 201 121 415 248 215 127 397 236 405 241 8 5 94 56 192 114 l176
106 191 0 191 0 549 -549 548 -548 1 -3684 c0 -2026 1 -3688 1 -3694 1 -7 410
-10 1208 -9 l1208 0 2 3995 c2 4395 7 4062 -59 4254 -50 149 -119 273 -215
393 -45 55 -1915 1925 -1985 1984 -137 117 -352 224 -507 253 -14 3 -55 10
-91 17 -47 9 -271 12 -805 12 -801 0 -777 2 -955 -56 -123 -39 -220 -94 -940
-534 -205 -125 -403 -245 -525 -319 -60 -36 -213 -129 -340 -206 -126 -77
-264 -160 -305 -185 -41 -25 -137 -83 -214 -129 l-139 -84 -610 610 c-556 556
-680 673 -779 730 -78 46 -203 100 -285 124 -171 49 -213 51 -997 49 l-731 -1
-100 -26 c-55 -15 -109 -31 -120 -36 -63 -29 -94 -41 -103 -41 -5 0 -250 -145
-543 -322 -471 -283 -608 -366 -684 -411 -11 -7 -32 -20 -47 -29 -14 -10 -29
-18 -32 -18 -3 0 -6 199 -6 443 l0 443 -1210 0 c-820 0 -1210 -4 -1211 -11z"/>
</g>
</svg>
